
<svg xmlns="http://www.w3.org/2000/svg" viewBox="0 0 16 20">
  <path d="M12.115 3.875c.137-1.11-.33-2.24-.956-3.015-.697-.862-1.83-1.47-2.77-1.554-.147-1.158.605-2.38 1.4-3.092.85-.765 2.065-1.22 2.982-1.214.116 1.16-.32 2.3-.97 3.14-.74.957-1.978 1.593-2.878 1.61-.154-1.155.508-2.17 1.192-2.875zM8.434 19.97c-1.158.037-1.95-1.65-3.673-1.674-1.723-.023-3.273 1.603-4.16 1.603-.887 0-2.018-1.56-3.33-1.527-1.675.042-2.993 1.02-3.797 2.492-1.67 2.95-.427 7.29 1.177 9.677.79 1.18 1.756 2.49 3.028 2.44 1.197-.046 1.66-.796 3.11-.796 1.45 0 1.856.796 3.135.772 1.3-.02 2.123-1.21 2.924-2.384.9-1.37 1.273-2.69 1.298-2.76-.028-.013-2.503-.99-2.53-3.898-.023-2.44 1.934-3.577 2.025-3.635-1.106-1.682-2.82-1.867-3.42-1.91-.478-.027-1.082.07-1.787.3z" fill="black"/>
</svg>
