
<svg xmlns="http://www.w3.org/2000/svg" viewBox="0 0 100 40">
  <path fill="#1F70C1" d="M0 0h15v3.5H0zm0 6h15v3.5H0zm0 12h21v3.5H0zm0 6h21v3.5H0zm0-12h15v3.5H0zM0 36h15v3.5H0zm31.7-24h21v3.5h-21zm0 12h21v3.5h-21zm0-6h21v3.5h-21zm0 12h21v3.5h-21zM63.4 0h15v3.5h-15zm0 6h15v3.5h-15zm0 6h15v3.5h-15zm0 6h15v3.5h-15zm0 6h15v3.5h-15zm0 6h15v3.5h-15zm0 6h15v3.5h-15z"/>
  <path fill="#1F70C1" d="M83.4 30c-.3 2.3-1.6 3.4-4.2 3.4h-9.9V0h9.9c2.6 0 3.9 1.1 4.2 3.4h3.5C86.5 1.2 84.7 0 81.8 0H65.9v33.4h15.9c2.9 0 4.7-1.2 5.1-3.4h-3.5z"/>
</svg>
