
<svg xmlns="http://www.w3.org/2000/svg" viewBox="0 0 120 18">
  <path d="M11.3 1.4v15.2h-4.1V1.4H0V0h18.6v1.4h-7.3zm20 15.2h-2.8l-1-3.8H19l-1 3.8h-2.7l8.2-15.6L35.3 0l-4 16.6zm-4.5-5.2l-3.5-8.8-2.5 8.8h6zm12.7 5.2V1.4h-7.3V0H50v1.4h-7.3v15.2h-3.2zm26.3 0h-2.8l-1-3.8h-8.5l-1 3.8h-2.7l8.2-15.6L66.3 0l-4 16.6zm-4.5-5.2l-3.5-8.8-2.5 8.8h6zm18.8 5.2h-11V0h10.6v1.4h-7.4v6.1h6.9v1.4h-6.9v6.3h7.8v1.4zm16.3 0h-11V0h10.6v1.4h-7.4v6.1h6.9v1.4h-6.9v6.3h7.8v1.4zm16.3 0h-11V0h10.6v1.4h-7.4v6.1h6.9v1.4h-6.9v6.3h7.8v1.4z" fill="#000"/>
</svg>
